<svg width="849" height="610" viewBox="0 0 849 610" fill="none" xmlns="http://www.w3.org/2000/svg">
<path d="M809.562 0.205781C835.792 -2.63702 855.512 24.4978 845.912 49.2278C840.302 63.6758 827.13 68.6418 814.112 74.5258L725.516 113.93C655.204 145.14 585.358 177.364 514.756 207.916C519.326 220.418 523.834 232.936 528.186 245.516C542.494 246.7 557.64 245.522 572.038 245.516L657.76 245.504C672.036 245.504 686.484 245 700.734 245.552C726.682 246.558 694.088 275.25 688.29 282.132C682.946 288.474 678.142 295.736 672.362 301.64C640.248 334.448 575.602 377.392 532.522 392.748C521.81 396.568 477.996 410.006 472.562 414.422C460.39 424.312 472.672 451.49 477.524 462.376C509.722 534.602 565.524 524.392 581.138 542.564C588.498 551.128 587.804 573.104 586.66 584.75C583.688 615.014 552.964 608.572 531.626 608.576C519.302 608.58 505.938 609.848 493.724 608.592C466.944 583.092 428.076 576.394 396.044 596.776C390.642 600.214 386.26 604.98 380.986 608.592C374.508 609.154 367.598 608.642 361.066 608.626L194.75 608.592L165.102 608.676C157.018 608.702 148.08 609.906 140.916 605.314C125.948 595.724 125.652 552.822 135.256 541.914C151.694 523.24 191.644 534.036 225.37 481.732C233.084 469.768 248.34 435.972 244.764 421.142C241.642 408.184 225.978 407.2 215.32 404.316C136.34 382.934 66.1906 331.462 12.9432 270.508C9.53338 266.604 -8.15062 249.744 4.74838 245.242C6.01258 244.802 46.1832 245.514 51.5508 245.514L311.168 245.524C320.71 245.536 330.478 246.26 339.976 245.592L340.974 245.516C334.776 226.106 313.994 181.21 311.77 164.328C310.922 157.882 357.344 141.696 365.132 138.56L412.95 119.17C426.182 113.876 456.982 98.0658 469.634 97.3698C475.014 100.556 482.994 128.176 486.922 135.364L487.336 136.11L760.81 19.8898C771.964 15.0898 799.22 1.43578 809.562 0.205781Z" fill="#2A2D3E"/>
<path d="M327.888 169.254C373.084 151.552 417.592 132.086 462.654 114.044C471.172 134.63 480.466 155.686 487.336 176.886C496.214 199.622 505.454 222.352 513.174 245.516C502.748 246.594 492.11 246.204 481.636 246.206H383.022C374.3 246.214 365.286 246.722 356.602 246.184C354.844 241.812 353.016 237.452 351.456 233.004C342.986 212.054 335.9 190.404 327.888 169.254Z" fill="#FF6B2C"/>
<path d="M491.742 149.156C514.702 140.27 537.122 130.158 559.826 120.66L770.992 30.1721C789.216 22.1681 815.134 3.97011 830.414 22.6901C848.52 50.9061 809.818 61.1721 791.256 69.5841L594.166 157.526C566.036 170.146 538.218 183.798 509.504 195.068C505.85 185.588 502.144 176.122 498.704 166.562C496.53 160.696 494.148 154.93 491.742 149.156Z" fill="#FF6B2C"/>
<path d="M230.124 502.354C237.702 500.914 245.348 497.568 252.63 494.97L432.296 432.658C438.95 430.318 445.608 427.602 452.378 425.654C458.244 478.256 497.038 528.442 548.25 544.318C558.346 547.448 570.916 545.832 572.294 559.13C576.398 598.744 568.796 594.216 534.75 594.15C523.65 594.128 512.27 594.74 501.2 594.134C468.3 569.506 424.88 559.864 388.404 584.24C381.486 588.862 377.832 593.9 369.11 594.08C326.68 594.954 284.072 594.148 241.624 594.136L185.934 594.116C177.63 594.136 148.198 597.816 145.414 588.882C143.61 583.094 141.85 558.054 144.996 553.006C148.046 548.108 168.802 542.94 175.048 540.61C196.876 532.466 213.922 519.038 230.124 502.354Z" fill="#FF6B2C"/>
<path d="M22.948 259.648C47.358 258.93 72.0164 259.646 96.449 259.648H688.578C677.498 273.314 666.04 287.916 653.47 300.122C623.524 329.198 565.78 366.224 526.342 380.292C495.47 391.3 458.59 391.032 452.378 425.654C445.608 427.602 438.95 430.318 432.296 432.658L252.63 494.97C245.348 497.568 237.702 500.914 230.124 502.354C244.548 476.022 278.846 424.75 247.054 400.104C238.268 393.294 223.842 391.382 213.272 388.282C147.984 369.128 63.9394 315.87 22.948 259.648Z" fill="#5F637B"/>
<path d="M73.4944 266.99C82.9454 267.876 94.6276 272.474 104.141 274.884C144.216 285.038 188.204 288.602 229.368 286.648C236.882 286.29 254.058 282.096 250.608 295.344C249.888 298.11 248.23 299.576 245.846 300.974C243.362 301.184 240.78 300.836 238.274 300.846L218.944 300.966C172.77 301.11 127.864 297.32 83.2578 284.688C73.9656 282.058 57.6136 274.65 73.4944 266.99Z" fill="#2A2D3E"/>
</svg>
