<?xml version="1.0" encoding="utf-8" ?>
<svg xmlns="http://www.w3.org/2000/svg" xmlns:xlink="http://www.w3.org/1999/xlink" width="1024" height="1024">
	<path fill="#2A2D3E" transform="scale(2 2)" d="M421.484 237.529C426.988 236.78 431.115 250.898 424.43 254.735C416.808 255.119 416.852 240.122 421.484 237.529Z"/>
	<path fill="#2A2D3E" transform="scale(2 2)" d="M177.111 109.279C180.199 108.97 183.609 110.655 182.31 114.417C181.199 117.635 174.871 119.992 171.921 121.44C169.19 121.644 166.002 119.434 166.916 116.357C167.821 113.314 174.47 110.591 177.111 109.279Z"/>
	<path fill="#2A2D3E" transform="scale(2 2)" d="M235.288 90.6576C237.104 90.4431 240.484 89.9497 241.526 91.9991C245.298 99.4198 235.582 97.8913 231.692 99.5092C230.302 99.614 228.957 99.5731 227.566 99.5092C218.391 93.227 229.979 91.1152 235.288 90.6576Z"/>
	<path fill="#2A2D3E" transform="scale(2 2)" d="M422.412 268.768C430.394 268.312 427.105 284.737 424.43 286.795C421.32 287.27 418.945 286.646 418.725 282.915C418.454 278.308 418.107 271.165 422.412 268.768Z"/>
	<path fill="#2A2D3E" transform="scale(2 2)" d="M206.913 96.7784C209.668 96.5294 212.744 99.1155 211.396 102.032C210.088 104.863 202.364 106.603 199.341 107.644C195.964 108.028 192.671 105.198 194.755 101.667C196.472 98.7599 203.661 97.6594 206.913 96.7784Z"/>
	<path fill="#2A2D3E" transform="scale(2 2)" d="M291.01 94.5118C296.935 94.9433 313.195 100.876 301.643 105.359C294.651 106.055 281.334 99.1396 291.01 94.5118Z"/>
	<path fill="#2A2D3E" transform="scale(2 2)" d="M320.012 105.359C325.63 105.025 339.876 113.435 330.689 117.822C325.131 118.119 311.451 110.178 320.012 105.359Z"/>
	<path fill="#2A2D3E" transform="scale(2 2)" d="M416.039 301.25C425.201 300.859 418.882 317.003 414.898 319.318C405.467 318.273 412.518 303.039 416.039 301.25Z"/>
	<path fill="#2A2D3E" transform="scale(2 2)" d="M259.563 89.9407C263.131 89.6406 276.47 89.3393 274.083 96.0628C273.607 97.4037 272.544 98.1201 271.335 98.747C269.407 98.858 261.354 98.3354 259.565 97.8487C255.001 96.6072 255.935 91.5597 259.563 89.9407Z"/>
	<path fill="#2A2D3E" transform="scale(2 2)" d="M413.731 205.259C420.456 204.971 421.098 214.433 422.412 219.39C421.724 221.24 421.234 222.133 419.54 223.226C413.203 223.973 410.769 210.884 411.11 208.705C411.379 206.98 412.333 206.166 413.731 205.259Z"/>
	<path fill="#2A2D3E" transform="scale(2 2)" d="M378.434 80.6094C387.254 78.3235 397.082 85.4098 400.815 92.9253C404.402 100.145 403.436 105.929 401.001 113.259C411.627 115.498 419.098 125.737 420.988 136.007C421.842 140.652 421.891 164.303 420.833 168.598C419.146 175.448 414.582 179.578 408.747 183.122C409.429 184.293 410.164 185.464 410.766 186.677C412.816 190.811 406.058 199.117 401.001 184.497C398.776 184.674 396.601 184.631 394.375 184.497L370.207 184.509C356.437 184.535 342.344 183.296 340.586 164.967C338.759 145.907 337.932 120.685 359.991 113.259C352.717 99.1909 362.193 81.7013 378.434 80.6094Z"/>
	<path fill="#BDCDEC" transform="scale(2 2)" d="M378.434 88.3191C392.467 86.8942 398.218 99.255 393.72 111.023L382.875 111.023L367.203 111.023C361.846 100.888 367.623 90.546 378.434 88.3191Z"/>
	<path fill="#FF6B2C" transform="scale(2 2)" d="M369.415 118.763C381.317 118.467 399.222 116.316 407.957 125.998C414.437 133.182 413.673 141.632 413.729 150.595C413.842 168.529 414.073 178.71 392.502 176.998L370.787 177.011C351.103 177.101 348.229 175.174 348.121 153.164C348.04 136.53 348.957 120.793 369.415 118.763Z"/>
	<path fill="#2A2D3E" transform="scale(2 2)" d="M193.383 185.51L303.306 185.506C323.606 185.51 319.457 181.468 329.497 197.84L345.177 223.62C351.149 233.477 354.13 236.535 347.474 249.316C343.228 257.469 336.302 261.865 327.753 264.504L327.762 296.796C327.785 310.5 331.173 319.376 317.756 327.163L209.622 327.183C182.392 327.208 184.245 321.836 184.244 298.926L184.251 264.504C173.154 261.851 164.502 253.152 162.409 241.744C160.28 230.135 162.489 229.674 168.531 220.426C171.687 215.596 189.08 186.308 193.383 185.51ZM300.357 251.751C290.055 270.83 267.725 268.878 255.953 251.751C244.559 269.688 223.428 269.932 211.608 251.751C207.283 260.012 200.699 263.898 191.853 265.361L191.853 312.886C192.815 317.139 194.761 319.206 199.127 319.348C207.985 319.636 216.954 319.316 225.826 319.316L304.567 319.323C309.459 319.325 316.556 321.03 319.258 315.619C321.048 312.035 320.026 299.747 320.025 295.449L320.012 264.504C308.448 264.785 306.46 257.18 300.357 251.751Z"/>
	<path fill="#FF6B2C" transform="scale(2 2)" d="M216.42 236C227.312 236.419 241.369 236.467 252.258 236C251.873 241.926 251.007 247.72 246.056 251.751C235.084 265.07 214.315 253.26 215.772 237.067C215.831 236.404 215.925 236.386 216.42 236Z"/>
	<path fill="#FF6B2C" transform="scale(2 2)" d="M260.171 236L283.559 235.996C287.63 235.99 291.72 235.841 295.787 236C296.497 242.512 294.977 246.619 291.01 251.751C277.932 264.976 260.827 254.807 260.171 236Z"/>
	<path fill="#FF6B2C" transform="scale(2 2)" d="M304.723 236C317.677 236.003 330.698 235.699 343.645 236C342.352 241.912 340.783 246.292 336.643 250.82C321.914 265.094 305.756 255.346 304.723 236Z"/>
	<path fill="#FF6B2C" transform="scale(2 2)" d="M171.921 236L195.294 236.005C199.519 236.011 203.766 236.154 207.988 236C207.46 242.771 206.29 248.016 201.612 253.131C192.771 260.824 179.92 257.459 173.339 248.422C172.174 246.822 166.795 236.387 170.706 236.09L171.921 236Z"/>
	<path fill="#FF6B2C" transform="scale(2 2)" d="M207.988 193.16L217.737 193.16C214.242 202.992 208.767 218.082 206.913 228.175L183.188 228.175L172.861 228.175C179.553 216.082 188.191 204.964 195.412 193.16L207.988 193.16Z"/>
	<path fill="#FF6B2C" transform="scale(2 2)" d="M295.787 193.16L317.756 193.16C319.807 197.818 338.429 225.923 338.393 228.175C327.177 228.172 315.934 228.352 304.723 228.175C301.906 220.216 296.411 200.217 295.787 193.16Z"/>
	<path fill="#FF6B2C" transform="scale(2 2)" d="M260.171 193.16L287.636 193.16C288.565 201.867 296.772 223.416 296.287 227.981L295.787 228.175L260.171 228.175C259.946 216.574 260.185 205.026 259.774 193.428L260.171 193.16Z"/>
	<path fill="#FF6B2C" transform="scale(2 2)" d="M238.063 193.16L252.258 193.16L252.258 228.175L229.875 228.175C224.843 228.194 219.808 228.251 214.777 228.175C217.72 216.399 221.856 204.685 225.652 193.16L238.063 193.16Z"/>
	<path fill="#2A2D3E" transform="scale(2 2)" d="M130.389 80.6094C148.581 79.3686 158.713 97.2609 153.33 113.259C165.974 119.851 171.808 129.279 171.916 143.901L171.947 156.175C171.946 184.195 158.677 184.501 135.124 184.505L110.154 184.497C85.9604 227.984 84.5152 282.394 105.389 327.466C106.966 330.871 108.777 334.147 110.154 337.643C113.887 332.426 114.48 329.296 120.695 326.272C139.667 317.041 159.889 334.591 152.086 356.15C173.53 366.902 170.651 377.257 171.921 395.912C216.982 422.542 273.435 426.617 321.427 405.306C327.775 402.487 334.334 399.353 339.733 394.939C339.652 375.916 340.836 365.876 359.991 356.15L359.693 355.368C355.062 343.039 360.245 329.626 373.006 325.108C392.006 318.381 409.773 338.409 401.001 356.15C406.234 357.902 409.696 360.954 413.731 364.585C414.519 366.038 415.678 367.439 416.572 368.848C423.34 379.503 424.255 410.307 415.584 420.251C406.617 430.534 393.635 428.207 381.475 428.173C363.903 428.123 340.968 430.608 339.733 404.821C336.029 406.347 332.608 408.473 329.012 410.231C277.875 435.231 221.262 430.967 171.921 404.821C170.679 430.429 151.52 427.643 131.776 427.682C115.396 427.715 93.1148 431.184 90.9004 407.847C89.0174 388.002 88.6483 363.871 111.358 356.15C108.948 349.302 105.087 343.859 101.739 337.484C75.6784 287.861 77.6358 231.268 102.722 182.039C90.8902 174.417 90.7391 167.182 90.7323 154.064C90.7225 135.151 90.6363 122.555 110.154 113.259C105.347 97.3177 112.331 81.7766 130.389 80.6094Z"/>
	<path fill="#BDCDEC" transform="scale(2 2)" d="M129.524 331.831C141.989 330.357 149.174 342.812 144.413 354.323L133.993 354.323L118.94 354.323C114.371 344.088 117.817 333.694 129.524 331.831Z"/>
	<path fill="#BDCDEC" transform="scale(2 2)" d="M379.424 331.831C392.062 329.996 398.702 343.379 393.72 354.323L382.875 354.323C377.704 354.346 372.337 353.878 367.203 354.323C363.853 343.91 366.751 332.779 379.424 331.831Z"/>
	<path fill="#BDCDEC" transform="scale(2 2)" d="M130.389 88.3191C142.896 87.3379 150.545 100.212 145.592 111.023L133.993 111.023L117.647 111.023C113.091 100.52 119.319 90.0498 130.389 88.3191Z"/>
	<path fill="#FF6B2C" transform="scale(2 2)" d="M120.654 118.763C140.8 118.07 164.077 117.223 164.246 143.384L164.251 154.556C164.241 172.631 161.167 177.088 142.625 176.998L124.281 177.016C101.132 177.018 98.5436 174.329 98.5096 153.566C98.4817 136.482 99.7367 121.054 120.654 118.763Z"/>
	<path fill="#FF6B2C" transform="scale(2 2)" d="M123.873 361.689L135.097 361.681C152.795 361.694 164.14 368.203 164.233 387.175C164.356 412.083 168.228 420.083 138.875 419.996L121.227 420.012C100.072 420.024 98.5723 417.006 98.513 395.903C98.4557 375.517 100.396 363.348 123.873 361.689Z"/>
	<path fill="#FF6B2C" transform="scale(2 2)" d="M376.262 361.689C406.515 361.558 413.774 366.113 413.755 397.566C413.741 421.527 405.138 419.965 385.125 419.996C364.083 419.928 347.253 426.534 347.18 397.595L347.193 387.867C347.371 369.544 359.008 361.468 376.262 361.689Z"/>
</svg>
