<svg width="819" height="787" viewBox="0 0 819 787" fill="none" xmlns="http://www.w3.org/2000/svg">
<path d="M17.928 0.496315C34.3218 -0.520085 51.1936 0.497514 67.638 0.498314L217.072 0.478714C257.998 0.451714 261.044 2.56391 261.03 43.6981L260.982 88.4421L319.54 88.4341C336.036 88.4261 355 86.7221 370.932 90.8661C397.296 97.7221 419.348 120.466 426.132 146.752C430.57 163.942 428.816 192.172 428.814 210.766L428.808 294.736L490.328 294.726C531.706 294.668 536.792 291.766 536.74 332.388L536.712 372.246L596.504 372.224C643.722 372.228 690.366 374.422 704.296 432.83C708.154 449.004 706.498 475.52 706.496 492.924L706.5 584.33C714.476 585.004 722.946 584.372 730.984 584.346L779.18 584.288C785.93 584.284 797.346 583.09 803.448 585.304C823.188 592.46 818.396 618.908 818.382 635.54L818.46 734.552C818.468 752.41 823.026 776.228 802.504 784.602C792.744 788.03 757.936 786.004 746.17 786.006L602.712 786.002C555.55 786.024 558.668 780.634 558.652 738.352L558.676 693.754L495.538 693.748C480.092 693.758 463.206 695.304 448.146 691.522C387.858 676.382 388.476 623.604 388.52 575.562L388.502 494.828L324.892 494.846C283.5 494.888 282.498 494.65 282.552 456.15L282.56 411.994L223.158 412.012C206.552 412.012 187.04 413.684 171.044 409.406C143.068 401.926 120.644 377.814 113.826 349.894C109.58 332.502 111.356 306.766 111.362 288.266L111.344 204.254L50.6586 204.28C6.36939 204.286 0.944993 206.882 0.962593 163.508L0.977989 54.9967C0.980989 34.7685 -5.57821 6.90171 17.928 0.496315ZM260.982 128.436C260.582 142.152 262.948 175.614 260.048 187.234C254.724 208.572 230.504 204.294 213.986 204.286C193.318 204.274 172.592 203.918 151.93 204.254C151.606 213.672 151.914 223.166 151.922 232.592L151.92 314.386C151.808 351.662 163.066 371.114 203.336 372.234C228.862 372.946 254.576 372.238 280.124 372.246C286.622 369.834 279.438 320.652 283.842 307.79C289.528 291.18 313.76 294.716 327.396 294.72L367.64 294.758C374.576 294.77 381.578 295.038 388.502 294.736L388.506 204.848C388.51 170.7 395.54 128.258 346.516 128.404L288.678 128.418C279.654 128.4 269.926 127.596 260.982 128.436ZM536.712 413.586L536.74 453.804C536.742 496.598 535.022 494.846 490.234 494.84L428.808 494.828C429.922 504.624 428.822 514.538 428.806 524.364L428.788 588.258C428.836 643.852 434.494 653.548 494.968 653.536L558.676 653.502C558.412 642.512 558.718 631.592 558.648 620.614C558.526 601.238 557.132 584.64 581.88 584.332C609.738 583.984 637.644 584.318 665.508 584.33L665.524 464.638C665.5 411.376 642.856 413.564 602.116 413.562L536.712 413.586Z" fill="#2A2D3E"/>
<path d="M260.982 103.018L318.22 102.996C333.782 102.994 352.626 101.436 367.626 105.378C418.678 118.794 414.392 168.856 414.388 208.808L414.392 294.736C410.556 294.944 406.826 294.936 402.99 294.736L403.008 207.304C403.01 173.076 409.25 126.506 364.716 115.234C352.68 112.188 335.498 113.614 322.796 113.62L260.982 113.646V103.018Z" fill="#D07765"/>
<path d="M611.01 387.482C634.198 386.072 656.002 389.846 673.102 407.092C696.816 431.012 691.568 461.988 691.552 492.918L691.57 584.33C687.866 584.656 684.208 584.574 680.504 584.33V521.75L680.544 476.53C680.556 444.338 680.542 409.342 639.872 399.666C627.544 396.732 612.652 398.398 599.892 398.422L536.712 398.404C536.844 394.77 536.746 391.118 536.712 387.482H611.01Z" fill="#D07765"/>
<path d="M129.02 204.254C131.714 204.142 134.424 204.228 137.122 204.254L137.102 288.572C137.056 326.714 132.034 373.722 181.998 384.842C192.916 387.272 207.844 386.002 219.222 386.002L282.56 385.976C282.776 389.108 283.814 394.386 281.978 396.938L280.124 397.064C250.144 397.058 219.948 397.852 189.988 397.058C159.792 396.256 134.524 373.678 127.738 344.686C125.142 333.598 125.87 321.654 125.88 310.324L125.892 228.61C125.882 221.632 122.816 205.328 129.02 204.254Z" fill="#D07765"/>
<path d="M402.99 494.828C407.066 495.206 411.022 495.136 415.1 494.828L415.086 574.176C415.054 611.28 409.214 655.93 457.334 666.904C469.272 669.626 482.828 668.062 495.046 668.06L558.676 668.082C558.908 671.748 558.808 675.358 558.676 679.026C528.966 679.644 496.146 679.854 466.492 678.948C413.228 677.316 402.892 635.248 402.986 592.688L402.994 561.368C402.99 539.248 402.282 516.916 402.99 494.828Z" fill="#D07765"/>
<path d="M301.266 309.868C310.21 309.406 319.384 309.858 328.352 309.86L382.892 309.868C429.25 309.87 475.684 309.296 522.032 309.868L522.018 409.828C522.02 420.776 526.036 476.87 517.886 479.878C510.972 480.66 503.246 479.922 496.25 479.906L305.784 480.068C303.612 480.05 299.822 480.198 298.252 478.602C295.85 464.388 297.35 449.07 297.35 434.704L297.398 365.44C297.412 355.19 293.53 314.294 301.266 309.868Z" fill="#FF6B2C"/>
<path d="M702.87 598.798L761.702 598.768C773.662 598.766 801.314 593.392 802.212 608.062C802.87 618.814 802.516 629.726 802.514 640.494L802.52 739.752C802.544 752.816 807.674 769.094 792.154 770.838C779.008 772.312 764.79 771.31 751.546 771.31L675.25 771.29L611.834 771.296C600.918 771.302 589.956 771.574 579.044 771.29C569.958 765.798 573.474 745.598 573.496 735.59L573.502 633.516C573.5 624.39 573.122 615.108 573.554 606.002C574.126 593.944 617.838 598.778 627.634 598.778L702.87 598.798Z" fill="#FF6B2C"/>
<path d="M702.87 625.534C723.318 624.208 727.608 647.772 708.798 656.8C688.844 656.192 683.808 631.192 702.87 625.534Z" fill="#FAE1B5"/>
<path d="M602.052 625.534C616.182 622.662 611.038 647.07 611.036 656.794L611.01 713.98C616.022 709.646 620.604 704.632 625.286 699.934L649.418 675.694C655.864 669.168 662.306 661.394 670.298 656.8C679.852 663.412 695.728 680.962 704.752 690.01C722.478 676.606 737.296 658.392 753.31 643.04C745.318 642.54 736.556 637.712 744.578 630.214C747.498 627.486 770.596 628.416 775.624 628.632C780.786 634.372 778.628 723.472 778.404 736.062C778.22 746.428 777.188 747.644 767.174 748.072C755.992 748.548 744.722 748.234 733.53 748.222L631.97 748.246C616.006 748.282 597.568 754.292 596.904 736.682C595.98 712.11 596.766 687.238 596.774 662.638C596.778 651.31 592.56 632.308 602.052 625.534Z" fill="#2A2D3E"/>
<path d="M764.028 653.502C764.564 654.386 764.026 725.354 764.028 733.408H614.462C618.524 727.64 624.22 722.58 629.2 717.604L670.298 676.528C679.586 684.468 695.342 703.768 704.752 708.932C713.35 705.074 734.096 682.606 741.842 674.978L764.028 653.502Z" fill="#C9D1EE"/>
<path d="M17.9279 15.4935C32.2813 15.0445 46.7665 15.4763 61.1373 15.4797L205.18 15.4827C215.588 15.4763 226.354 14.9321 236.73 15.7017C250.918 16.7543 245.47 50.6121 245.464 62.2965L245.504 164.96C245.532 173.382 247.882 182.522 241.716 189.15C233.954 190.65 207.416 189.142 198.194 189.136L47.5077 189.16C36.2609 189.16 16.7537 193.856 16.0447 180.352C15.4603 169.22 15.8589 157.898 15.8563 146.748L15.8287 42.6689C15.8159 37.1547 13.6579 19.1013 17.9279 15.4935Z" fill="#FF6B2C"/>
<path d="M383.595 348C393.829 348.904 409.511 360.358 418.906 365.412C458.502 386.72 465.454 384.818 425.464 406.13C417.128 410.4 379.102 439.33 377.04 419.366C375.7 406.386 370.805 354.178 383.595 348Z" fill="white"/>
<path d="M140.026 41.2334C160.474 39.9074 164.764 63.4714 145.954 72.4994C126 71.8914 120.964 46.8914 140.026 41.2334Z" fill="#FAE1B5"/>
<path d="M39.2085 41.2333C53.3385 38.3613 48.1945 62.7693 48.1925 72.4933L48.1665 129.679C53.1785 125.345 57.7605 120.331 62.4425 115.633L86.5746 91.3933C93.0206 84.8673 99.4625 77.0933 107.455 72.4993C117.009 79.1113 132.885 96.6613 141.909 105.709C159.635 92.3053 174.453 74.0913 190.467 58.7393C182.475 58.2393 173.713 53.4113 181.735 45.9133C184.655 43.1853 207.753 44.1153 212.781 44.3313C217.943 50.0713 215.785 139.171 215.561 151.761C215.377 162.127 214.345 163.343 204.331 163.771C193.149 164.247 181.879 163.933 170.687 163.921L69.1265 163.945C53.1625 163.981 34.7245 169.991 34.0605 152.381C33.1365 127.809 33.9225 102.937 33.9305 78.3373C33.9345 67.0093 29.7165 48.0073 39.2085 41.2333Z" fill="#2A2D3E"/>
<path d="M201.184 69.2012C201.72 70.0852 201.182 141.053 201.184 149.107H51.6184C55.6804 143.339 61.3764 138.279 66.3564 133.303L107.454 92.2272C116.742 100.167 132.498 119.467 141.908 124.631C150.506 120.773 171.252 98.3052 178.998 90.6772L201.184 69.2012Z" fill="#C9D1EE"/>
</svg>
