<?xml version="1.0" encoding="utf-8" ?>
<svg xmlns="http://www.w3.org/2000/svg" xmlns:xlink="http://www.w3.org/1999/xlink" width="1024" height="1024">
	<path fill="#2A2D3E" transform="scale(2 2)" d="M156.366 90.8725L341.987 90.8673C363.294 90.8659 393.014 87.2249 397.865 115.872C398.803 121.411 398.391 127.459 398.389 133.078L398.377 208.703C398.379 216.533 398.715 224.479 398.381 232.293L425 232.275C442.431 232.272 453.595 231.37 453.736 253.038L453.745 357.874C453.741 380.849 450.477 385.215 427.071 385.188L324.938 385.174L285.103 385.17C281.669 385.171 271.419 384.703 268.599 385.448C262.9 386.951 236.543 409.102 227.366 414.967C219.553 419.96 221.218 407.181 221.221 403.374L221.245 385.174C208.973 385.325 196.893 383.302 193.998 368.495C193.248 364.653 193.535 360.489 193.542 356.592L193.566 340.324C193.569 323.17 193.169 305.923 193.56 288.78L98.6686 288.791C93.7449 288.791 88.4886 289.156 83.6486 288.184C68.798 285.2 58.3529 272.538 58.1911 257.423C57.8436 224.964 58.19 192.465 58.1871 160.002L58.1703 132.376C58.1311 114.107 59.26 96.8031 81.9596 91.708C89.1561 90.0927 101.606 90.8797 109.427 90.8812L156.366 90.8725ZM75.4337 276.908C78.9093 280.042 84.6496 281.741 89.267 281.769L356.924 281.59C376.648 281.577 391.433 276.251 391.499 253.729L391.475 134.161C391.483 125.994 393.059 114.074 386.684 107.654C372.828 100.295 365.264 102.85 350.723 102.851L112.749 102.843C106.448 102.839 90.5212 102.099 84.8953 103.853C66.2197 109.672 70.2411 133.781 70.2544 148.895L70.2626 239.531C70.2622 250.503 68.1296 263.791 73.5349 273.857C74.0655 274.846 75.1741 275.842 75.4337 276.908ZM75.4337 276.908C75.1741 275.842 74.0655 274.846 73.5349 273.857C68.1296 263.791 70.2622 250.503 70.2626 239.531L70.2544 148.895C70.2411 133.781 66.2197 109.672 84.8953 103.853C90.5212 102.099 106.448 102.839 112.749 102.843L350.723 102.851C365.264 102.85 372.828 100.295 386.684 107.654C379.203 97.5008 370.425 97.968 359.266 97.9818L110.717 97.9867C93.3879 97.9789 68.6003 94.2908 65.3402 117.968C64.4554 124.395 65.0978 132.125 65.0981 138.701L65.0881 249.743C65.0926 260.493 65.386 270.15 75.4337 276.908Z"/>
	<path fill="#FF6B2C" transform="scale(2 2)" d="M398.381 239.77L426.046 239.749C433.672 239.742 446.253 237.493 446.546 248.85C446.767 257.413 446.507 266.043 446.506 274.614L446.506 355.464C446.577 378.517 446.657 377.843 421.512 377.82L271.858 377.814C262 377.897 246.912 389.98 240.573 396.433C236.255 398.911 232.585 402.336 228.26 404.759L228.282 389.322C228.298 375.087 228.675 377.95 214.235 377.944C201.138 377.939 200.641 366.468 200.638 357.095L200.643 288.78L355.018 288.788C394.179 288.777 398.488 275.434 398.381 239.77Z"/>
	<path fill="#2A2D3E" transform="scale(2 2)" d="M371.158 335.236C374.788 335.213 394.2 334.056 396.313 336.406C398.214 338.521 397.125 340.954 395.104 342.493C391.565 342.89 374.023 342.772 371.396 342.18C367.995 341.413 368.378 336.574 371.158 335.236Z"/>
	<path fill="#2A2D3E" transform="scale(2 2)" d="M332.927 310.176L374.366 310.177C381.258 310.175 388.224 309.924 395.104 310.176C399.503 313.839 397.157 317.235 392.371 317.721L352.244 317.709C345.851 317.724 337.708 318.206 331.528 317.696C326.076 317.245 324.281 310.343 332.927 310.176Z"/>
	<path fill="#2A2D3E" transform="scale(2 2)" d="M249.714 310.176C263.792 309.8 277.98 310.164 292.067 310.167L306.411 310.171C309.555 310.173 319.55 308.866 318.065 314.738C317.707 316.152 316.826 316.975 315.627 317.721C312.664 318.068 309.384 317.731 306.38 317.729L262.492 317.727C258.602 317.727 254.332 318.079 250.489 317.555C245.717 316.905 246.463 312.204 249.714 310.176Z"/>
	<path fill="#2A2D3E" transform="scale(2 2)" d="M249.714 335.236C256.744 334.85 264.028 335.228 271.082 335.229L343.788 335.245C347.085 335.246 355 334.708 357.694 335.51C360.973 336.486 360.559 341.274 357.678 342.493L260.188 342.506C256.685 342.509 245.106 344.434 247.377 337.562C247.796 336.296 248.565 335.806 249.714 335.236Z"/>
	<path fill="#FF6B2C" transform="scale(2 2)" d="M75.4337 276.908C75.1741 275.842 74.0655 274.846 73.5349 273.857C68.1296 263.791 70.2622 250.503 70.2626 239.531L70.2544 148.895C70.2411 133.781 66.2197 109.672 84.8953 103.853C90.5212 102.099 106.448 102.839 112.749 102.843L350.723 102.851C365.264 102.85 372.828 100.295 386.684 107.654C393.059 114.074 391.483 125.994 391.475 134.161L391.499 253.729C391.433 276.251 376.648 281.577 356.924 281.59L89.267 281.769C84.6496 281.741 78.9093 280.042 75.4337 276.908ZM146.814 216.005C163.892 237.476 142.966 262.399 119.826 250.631C124.37 260.56 147.082 260.486 154.22 247.247C159.139 238.126 156.615 221.287 146.814 216.005Z"/>
	<path fill="#2A2D3E" transform="scale(2 2)" d="M310.562 216.005C315.98 215.678 321.585 216.007 327.023 216C330.505 215.996 343.624 213.565 341.997 220.388C341.679 221.719 340.717 222.501 339.621 223.213C335.355 222.994 311.221 224.502 309.05 221.602C307.658 219.744 308.794 217.114 310.562 216.005Z"/>
	<path fill="#2A2D3E" transform="scale(2 2)" d="M190.686 241.108L241.996 241.103C244.223 241.105 246.6 240.971 248.81 241.227C252.876 241.699 254.464 247.752 245.826 248.427L207.706 248.413C203.766 248.414 187.922 249.667 185.217 247.34C180.604 243.373 186.816 241.201 190.686 241.108Z"/>
	<path fill="#2A2D3E" transform="scale(2 2)" d="M325.933 241.108C329.883 241.092 341.808 239.015 341.941 244.826C342.043 249.301 334.403 248.429 331.579 248.427L278.375 248.427C277.027 248.439 256.241 249.675 263.071 242.524C265.188 240.309 271.292 241.094 274.028 241.107L325.933 241.108Z"/>
	<path fill="#2A2D3E" transform="scale(2 2)" d="M287.137 216.005C289.985 215.878 295.412 215.075 297.786 216.792C301.12 219.205 297.343 222.908 294.458 223.192C291.367 223.497 287.955 223.22 284.839 223.219L196.227 223.213C194.68 223.226 178.29 223.789 184.806 217.443C187.677 214.647 195.998 215.983 199.625 216L287.137 216.005Z"/>
	<path fill="#2A2D3E" transform="scale(2 2)" d="M119.826 250.631C103.539 237.342 107.063 214.522 126.669 210.419C135.109 208.653 140.033 211.525 146.814 216.005C163.892 237.476 142.966 262.399 119.826 250.631Z"/>
	<path fill="white" transform="scale(2 2)" d="M123.412 243.907C118.453 241.315 115.947 234.614 116.808 229.34C118.921 216.396 135.668 212.434 142.945 223.213C135.283 219.77 125.417 222.683 121.94 230.598C118.634 238.122 121.346 238.769 123.412 243.907Z"/>
	<path fill="#FF6B2C" transform="scale(2 2)" d="M123.412 243.907C121.346 238.769 118.634 238.122 121.94 230.598C125.417 222.683 135.283 219.77 142.945 223.213C150.138 229.097 144.685 245.27 133.13 246.455C130.272 246.748 125.498 246.097 123.412 243.907Z"/>
	<path fill="#2A2D3E" transform="scale(2 2)" d="M117.856 131.973C126.891 131.788 147.577 128.474 150.211 140.36C151.085 144.305 151.089 167.735 150.433 171.712C149.607 176.721 145.493 180.063 140.7 181.145C131.035 180.879 110.105 185.078 108.127 171.689C107.454 167.131 107.394 144.904 108.266 140.594C109.219 135.886 113.18 132.609 117.856 131.973Z"/>
	<path fill="white" transform="scale(2 2)" d="M119.826 138.947C124.877 138.947 140.952 136.781 143.198 141.561C144.027 143.323 144.105 170.083 143.35 171.548C142.544 173.112 140.903 173.744 139.313 174.216C135.311 174.224 119.235 175.063 116.266 173.079C113.781 171.419 114.542 147.893 114.869 143.863C115.174 140.102 116.032 139.327 119.826 138.947Z"/>
	<path fill="#2A2D3E" transform="scale(2 2)" d="M123.412 145.253C125.669 145.234 135.209 144.668 136.609 146.144C137.597 147.185 138.671 164.785 135.619 167.455C133.203 167.476 123.158 168.492 122.01 166.012C121.109 164.066 119.084 146.966 123.412 145.253Z"/>
	<path fill="white" transform="scale(2 2)" d="M129.66 152.345C131.817 153.164 130.656 159.141 129.66 160.532C127.409 159.499 128.183 153.739 129.66 152.345Z"/>
	<path fill="#2A2D3E" transform="scale(2 2)" d="M318.852 131.973C342.362 132.007 350.656 127.598 350.65 153.638C350.648 163.648 353.551 179.565 339.621 181.145L325.727 181.19C306.87 181.317 307.114 176.833 307.064 158.974C307.035 148.503 304.324 133.474 318.852 131.973Z"/>
	<path fill="white" transform="scale(2 2)" d="M318.852 138.947C324.607 138.925 340.932 136.408 343.111 142.459C344.204 145.494 346.786 171.852 339.621 174.216C334.136 174.226 316.569 176.616 314.371 171.125C313.614 169.234 313.796 148.007 314.055 144.739C314.322 141.363 315.562 139.988 318.852 138.947Z"/>
	<path fill="#2A2D3E" transform="scale(2 2)" d="M323.183 145.253C326.374 145.231 333.07 144.578 335.822 145.907C336.573 148.704 338.482 166.797 333.96 167.455C331.549 167.692 323.134 168.094 321.404 166.798C320.536 164.148 319.1 146.979 323.183 145.253Z"/>
	<path fill="white" transform="scale(2 2)" d="M328.109 152.345C330.183 152.854 329.849 158.993 329.281 160.532C326.959 159.452 327.707 154.382 328.109 152.345Z"/>
	<path fill="#2A2D3E" transform="scale(2 2)" d="M251.808 131.973L266.074 131.934C286.283 131.912 284.28 138.104 284.28 157.218C284.28 166.498 286.639 179.338 274.062 181.145C268.515 181.447 254.933 181.668 249.926 180.811C238.511 178.858 240.568 165.44 240.578 157.054C240.59 147.089 238.388 133.823 251.808 131.973Z"/>
	<path fill="white" transform="scale(2 2)" d="M251.808 138.947C256.83 138.856 275.126 136.786 276.99 142.153C277.754 144.352 279.979 171.981 274.062 174.216L259.982 174.256C255.857 174.268 248.277 175.604 247.798 169.674C247.21 162.379 244.59 142.112 251.808 138.947Z"/>
	<path fill="#2A2D3E" transform="scale(2 2)" d="M256.623 145.253C258.883 145.164 268.453 144.721 269.792 145.955C270.596 148.784 272.031 165.325 268.629 167.455C266.001 167.567 257.503 168.594 255.51 166.541C254.69 163.881 253.419 147.22 256.623 145.253Z"/>
	<path fill="white" transform="scale(2 2)" d="M262.141 152.345L262.836 152.746C263.72 154.279 263.45 158.799 263.187 160.532C260.828 159.723 261.52 154.145 262.141 152.345Z"/>
	<path fill="#2A2D3E" transform="scale(2 2)" d="M183.695 131.973C189.639 131.814 207.704 130.995 211.979 133.72C219.733 138.662 217.22 150.468 217.229 158.251C217.241 168.073 219.253 178.775 206.559 181.145L192.397 181.179C185.479 181.24 175.177 181.973 173.626 172.387C172.966 168.309 173.068 144.821 173.764 140.966C174.615 136.257 179.128 132.696 183.695 131.973Z"/>
	<path fill="white" transform="scale(2 2)" d="M185.881 138.947C193.214 138.679 200.652 138.948 208 138.947C212.485 143.642 211.001 163.185 210.264 169.324C209.844 172.827 208.072 173.848 204.637 174.216C200.459 174.23 185.233 175.009 182.489 173.199C178.482 170.555 180.053 162.494 180.053 158.41C180.051 151.228 177.213 139.708 185.881 138.947Z"/>
	<path fill="#2A2D3E" transform="scale(2 2)" d="M188.825 145.253C191.039 145.125 201.263 144.106 202.655 146.067C203.484 147.235 205.316 165.188 201.76 167.455C199.613 167.411 189.691 168.148 188.315 166.732C186.92 163.981 185.768 147.585 188.825 145.253Z"/>
	<path fill="white" transform="scale(2 2)" d="M194.696 152.345L195.749 152.518C196.879 153.899 196.277 158.619 196.227 160.532C193.247 159.915 194.551 154.554 194.696 152.345Z"/>
</svg>
